  0
SECTION
  2
HEADER
  9
$ACADVER
  1
AC1014
  9
$HANDSEED
  5
FFFF
  9
$MEASUREMENT
 70
     1
  0
ENDSEC
  0
SECTION
  2
TABLES
  0
TABLE
  2
VPORT
  5
8
330
0
100
AcDbSymbolTable
 70
     4
  0
VPORT
  5
2E
330
8
100
AcDbSymbolTableRecord
100
AcDbViewportTableRecord
  2
*ACTIVE
 70
     0
 10
0.0
 20
0.0
 11
1.0
 21
1.0
 12
210.0
 22
148.5
 13
0.0
 23
0.0
 14
10.0
 24
10.0
 15
10.0
 25
10.0
 16
0.0
 26
0.0
 36
1.0
 17
0.0
 27
0.0
 37
0.0
 40
341.0
 41
1.24
 42
50.0
 43
0.0
 44
0.0
 50
0.0
 51
0.0
 71
     0
 72
   100
 73
     1
 74
     3
 75
     0
 76
     0
 77
     0
 78
     0
  0
ENDTAB
  0
TABLE
  2
LTYPE
  5
5
330
0
100
AcDbSymbolTable
 70
     1
  0
LTYPE
  5
14
330
5
100
AcDbSymbolTableRecord
100
AcDbLinetypeTableRecord
  2
BYBLOCK
 70
     0
  3

 72
    65
 73
     0
 40
0.0
  0
LTYPE
  5
15
330
5
100
AcDbSymbolTableRecord
100
AcDbLinetypeTableRecord
  2
BYLAYER
 70
     0
  3

 72
    65
 73
     0
 40
0.0
  0
LTYPE
  5
16
330
5
100
AcDbSymbolTableRecord
100
AcDbLinetypeTableRecord
  2
CONTINUOUS
 70
     0
  3
Solid line
 72
    65
 73
     0
 40
0.0
  0
ENDTAB
  0
TABLE
  2
LAYER
  5
2
100
AcDbSymbolTable
 70
6
  0
LAYER
  5
50
100
AcDbSymbolTableRecord
100
AcDbLayerTableRecord
  2
0
 70
0
  6
CONTINUOUS
  0
LAYER
  5
51
100
AcDbSymbolTableRecord
100
AcDbLayerTableRecord
  2
drawing
 70
0
  6
CONTINUOUS
  0
LAYER
  5
52
100
AcDbSymbolTableRecord
100
AcDbLayerTableRecord
  2
labels
 70
0
  6
CONTINUOUS
  0
LAYER
  5
53
100
AcDbSymbolTableRecord
100
AcDbLayerTableRecord
  2
gnd
 70
0
  6
CONTINUOUS
  0
LAYER
  5
54
100
AcDbSymbolTableRecord
100
AcDbLayerTableRecord
  2
bounding-box
 70
0
  6
CONTINUOUS
  0
LAYER
  5
55
100
AcDbSymbolTableRecord
100
AcDbLayerTableRecord
  2
component-dim
 70
0
  6
CONTINUOUS
  0
ENDTAB
  0
TABLE
  2
STYLE
  5
3
330
0
100
AcDbSymbolTable
 70
     1
  0
STYLE
  5
11
330
3
100
AcDbSymbolTableRecord
100
AcDbTextStyleTableRecord
  2
STANDARD
 70
     0
 40
0.0
 41
1.0
 50
0.0
 71
     0
 42
2.5
  3
txt
  4

  0
ENDTAB
  0
TABLE
  2
VIEW
  5
6
330
0
100
AcDbSymbolTable
 70
     0
  0
ENDTAB
  0
TABLE
  2
UCS
  5
7
330
0
100
AcDbSymbolTable
 70
     0
  0
ENDTAB
  0
TABLE
  2
APPID
  5
9
330
0
100
AcDbSymbolTable
 70
     2
  0
APPID
  5
12
330
9
100
AcDbSymbolTableRecord
100
AcDbRegAppTableRecord
  2
ACAD
 70
     0
  0
ENDTAB
  0
TABLE
  2
DIMSTYLE
  5
A
330
0
100
AcDbSymbolTable
 70
     1
  0
DIMSTYLE
105
27
330
A
100
AcDbSymbolTableRecord
100
AcDbDimStyleTableRecord
  2
ISO-25
 70
     0
  3

  4

  5

  6

  7

 40
1.0
 41
2.5
 42
0.625
 43
3.75
 44
1.25
 45
0.0
 46
0.0
 47
0.0
 48
0.0
140
2.5
141
2.5
142
0.0
143
0.03937007874016
144
1.0
145
0.0
146
1.0
147
0.625
 71
     0
 72
     0
 73
     0
 74
     0
 75
     0
 76
     0
 77
     1
 78
     8
170
     0
171
     3
172
     1
173
     0
174
     0
175
     0
176
     0
177
     0
178
     0
270
     2
271
     2
272
     2
273
     2
274
     3
340
11
275
     0
280
     0
281
     0
282
     0
283
     0
284
     8
285
     0
286
     0
287
     3
288
     0
  0
ENDTAB
  0
TABLE
  2
BLOCK_RECORD
  5
1
330
0
100
AcDbSymbolTable
 70
     1
  0
BLOCK_RECORD
  5
1F
330
1
100
AcDbSymbolTableRecord
100
AcDbBlockTableRecord
  2
*MODEL_SPACE
  0
BLOCK_RECORD
  5
1B
330
1
100
AcDbSymbolTableRecord
100
AcDbBlockTableRecord
  2
*PAPER_SPACE
  0
ENDTAB
  0
ENDSEC
  0
SECTION
  2
BLOCKS
  0
BLOCK
  5
20
330
1F
100
AcDbEntity
  8
0
100
AcDbBlockBegin
  2
*MODEL_SPACE
 70
     0
 10
0.0
 20
0.0
 30
0.0
  3
*MODEL_SPACE
  1

  0
ENDBLK
  5
21
330
1F
100
AcDbEntity
  8
0
100
AcDbBlockEnd
  0
BLOCK
  5
1C
330
1B
100
AcDbEntity
 67
     1
  8
0
100
AcDbBlockBegin
  2
*PAPER_SPACE
  1

  0
ENDBLK
  5
1D
330
1B
100
AcDbEntity
 67
     1
  8
0
100
AcDbBlockEnd
  0
ENDSEC
  0
SECTION
  2
ENTITIES
  0
LWPOLYLINE
  5
100
100
AcDbEntity
  8
drawing
 62
7
100
AcDbPolyline
 90
26
 70
1
 10
104.627721
 20
150.744847
 30
0.0
 10
104.627721
 20
150.596018
 30
0.0
 10
104.627721
 20
150.049799
 30
0.0
 10
104.627721
 20
149.822422
 30
0.0
 10
104.177620
 20
149.822422
 30
0.0
 10
104.177620
 20
147.177623
 30
0.0
 10
104.177620
 20
146.950245
 30
0.0
 10
104.127492
 20
146.950245
 30
0.0
 10
104.127492
 20
146.255198
 30
0.0
 10
104.372440
 20
146.255198
 30
0.0
 10
104.872667
 20
146.255198
 30
0.0
 10
104.872667
 20
146.338396
 30
0.0
 10
104.872667
 20
146.950245
 30
0.0
 10
104.872667
 20
147.177623
 30
0.0
 10
105.822479
 20
147.177623
 30
0.0
 10
105.822479
 20
149.822422
 30
0.0
 10
105.372378
 20
149.822422
 30
0.0
 10
105.372378
 20
150.049799
 30
0.0
 10
105.372378
 20
150.596018
 30
0.0
 10
105.627661
 20
150.596018
 30
0.0
 10
105.627661
 20
150.049799
 30
0.0
 10
105.872607
 20
150.049799
 30
0.0
 10
105.872607
 20
150.596018
 30
0.0
 10
105.872607
 20
150.744847
 30
0.0
 10
105.627661
 20
150.744847
 30
0.0
 10
104.872667
 20
150.744847
 30
0.0
  0
LWPOLYLINE
  5
101
100
AcDbEntity
  8
drawing
 62
7
100
AcDbPolyline
 90
6
 70
1
 10
104.872667
 20
150.596018
 30
0.0
 10
105.127432
 20
150.596018
 30
0.0
 10
105.127432
 20
150.049799
 30
0.0
 10
105.127432
 20
149.822422
 30
0.0
 10
104.872667
 20
149.822422
 30
0.0
 10
104.872667
 20
150.049799
 30
0.0
  0
LWPOLYLINE
  5
102
100
AcDbEntity
  8
drawing
 62
7
100
AcDbPolyline
 90
6
 70
1
 10
104.372440
 20
147.177623
 30
0.0
 10
104.627721
 20
147.177623
 30
0.0
 10
104.627721
 20
146.950245
 30
0.0
 10
104.627721
 20
146.338396
 30
0.0
 10
104.372440
 20
146.338396
 30
0.0
 10
104.372440
 20
146.950245
 30
0.0
  0
LWPOLYLINE
  5
103
100
AcDbEntity
  8
drawing
 62
7
100
AcDbPolyline
 90
11
 70
1
 10
105.898962
 20
152.420196
 30
0.0
 10
105.898962
 20
151.523095
 30
0.0
 10
106.049856
 20
151.523095
 30
0.0
 10
106.049856
 20
149.872547
 30
0.0
 10
106.049856
 20
149.627601
 30
0.0
 10
106.744904
 20
149.627601
 30
0.0
 10
106.744904
 20
149.872547
 30
0.0
 10
106.202817
 20
149.872547
 30
0.0
 10
106.202817
 20
151.523095
 30
0.0
 10
106.496341
 20
151.523095
 30
0.0
 10
106.496341
 20
152.420196
 30
0.0
  0
LWPOLYLINE
  5
104
100
AcDbEntity
  8
drawing
 62
7
100
AcDbPolyline
 90
25
 70
1
 10
105.649881
 20
156.887106
 30
0.0
 10
105.649881
 20
153.829412
 30
0.0
 10
106.369732
 20
153.829412
 30
0.0
 10
106.369732
 20
153.493515
 30
0.0
 10
106.369732
 20
153.328667
 30
0.0
 10
107.396027
 20
153.328667
 30
0.0
 10
107.396027
 20
152.420196
 30
0.0
 10
107.396027
 20
151.523095
 30
0.0
 10
107.321097
 20
151.523095
 30
0.0
 10
107.321097
 20
149.372321
 30
0.0
 10
106.744904
 20
149.372321
 30
0.0
 10
106.049856
 20
149.372321
 30
0.0
 10
106.049856
 20
149.127375
 30
0.0
 10
106.744904
 20
149.127375
 30
0.0
 10
107.464240
 20
149.127375
 30
0.0
 10
107.464240
 20
149.372321
 30
0.0
 10
107.464240
 20
151.523095
 30
0.0
 10
107.993406
 20
151.523095
 30
0.0
 10
107.993406
 20
152.420196
 30
0.0
 10
107.529869
 20
152.420196
 30
0.0
 10
107.529869
 20
153.493515
 30
0.0
 10
106.484972
 20
153.493515
 30
0.0
 10
106.484972
 20
153.829412
 30
0.0
 10
107.184154
 20
153.829412
 30
0.0
 10
107.184154
 20
156.887106
 30
0.0
  0
LWPOLYLINE
  5
105
100
AcDbEntity
  8
drawing
 62
7
100
AcDbPolyline
 90
83
 70
1
 10
100.767493
 20
163.080010
 30
0.0
 10
100.767493
 20
162.687270
 30
0.0
 10
100.767493
 20
157.864826
 30
0.0
 10
101.139044
 20
157.864826
 30
0.0
 10
102.090409
 20
157.864826
 30
0.0
 10
103.530632
 20
157.864826
 30
0.0
 10
103.530632
 20
158.305109
 30
0.0
 10
102.090409
 20
158.305109
 30
0.0
 10
101.139044
 20
158.305109
 30
0.0
 10
101.139044
 20
162.687270
 30
0.0
 10
123.617258
 20
162.687270
 30
0.0
 10
123.617258
 20
146.567324
 30
0.0
 10
122.891723
 20
146.567324
 30
0.0
 10
121.381219
 20
146.567324
 30
0.0
 10
120.775056
 20
146.567324
 30
0.0
 10
120.775056
 20
146.315661
 30
0.0
 10
120.775056
 20
142.160358
 30
0.0
 10
112.010734
 20
142.160358
 30
0.0
 10
112.010734
 20
143.888934
 30
0.0
 10
112.010734
 20
144.025359
 30
0.0
 10
112.010734
 20
149.055543
 30
0.0
 10
112.010734
 20
150.346421
 30
0.0
 10
112.456183
 20
150.346421
 30
0.0
 10
112.456183
 20
152.942129
 30
0.0
 10
111.460895
 20
152.942129
 30
0.0
 10
111.460895
 20
150.346421
 30
0.0
 10
111.894978
 20
150.346421
 30
0.0
 10
111.894978
 20
149.055543
 30
0.0
 10
111.813847
 20
149.055543
 30
0.0
 10
111.058853
 20
149.055543
 30
0.0
 10
111.058853
 20
149.546988
 30
0.0
 10
110.161751
 20
149.546988
 30
0.0
 10
110.161751
 20
149.349066
 30
0.0
 10
109.812935
 20
149.349066
 30
0.0
 10
109.812935
 20
149.546988
 30
0.0
 10
108.915831
 20
149.546988
 30
0.0
 10
108.915831
 20
149.349066
 30
0.0
 10
108.573733
 20
149.349066
 30
0.0
 10
108.573733
 20
149.546988
 30
0.0
 10
107.676631
 20
149.546988
 30
0.0
 10
107.676631
 20
149.103602
 30
0.0
 10
107.612036
 20
149.103602
 30
0.0
 10
107.612036
 20
148.872610
 30
0.0
 10
106.744904
 20
148.872610
 30
0.0
 10
106.049856
 20
148.872610
 30
0.0
 10
106.049856
 20
148.627664
 30
0.0
 10
106.744904
 20
148.627664
 30
0.0
 10
107.723656
 20
148.627664
 30
0.0
 10
107.723656
 20
148.872610
 30
0.0
 10
107.723656
 20
148.950125
 30
0.0
 10
108.573733
 20
148.950125
 30
0.0
 10
108.573733
 20
149.140810
 30
0.0
 10
108.915831
 20
149.140810
 30
0.0
 10
108.915831
 20
148.950125
 30
0.0
 10
109.812935
 20
148.950125
 30
0.0
 10
109.812935
 20
149.140810
 30
0.0
 10
110.161751
 20
149.140810
 30
0.0
 10
110.161751
 20
148.950125
 30
0.0
 10
111.058853
 20
148.950125
 30
0.0
 10
111.813847
 20
148.950125
 30
0.0
 10
111.813847
 20
144.025359
 30
0.0
 10
106.924738
 20
144.025359
 30
0.0
 10
106.924738
 20
144.024830
 30
0.0
 10
105.909297
 20
144.024830
 30
0.0
 10
105.909297
 20
141.993946
 30
0.0
 10
106.924738
 20
141.993946
 30
0.0
 10
106.924738
 20
143.888921
 30
0.0
 10
111.813847
 20
143.888921
 30
0.0
 10
111.813847
 20
141.993946
 30
0.0
 10
112.010734
 20
141.993946
 30
0.0
 10
120.775056
 20
141.993946
 30
0.0
 10
120.987445
 20
141.993946
 30
0.0
 10
120.987445
 20
142.160345
 30
0.0
 10
120.987445
 20
146.315648
 30
0.0
 10
121.381219
 20
146.315648
 30
0.0
 10
121.381219
 20
142.300905
 30
0.0
 10
122.891723
 20
142.300905
 30
0.0
 10
122.891723
 20
146.315648
 30
0.0
 10
123.959357
 20
146.315648
 30
0.0
 10
123.959357
 20
146.567311
 30
0.0
 10
123.959357
 20
162.687257
 30
0.0
 10
123.959357
 20
163.079997
 30
0.0
 10
123.617258
 20
163.079997
 30
0.0
  0
LWPOLYLINE
  5
106
100
AcDbEntity
  8
drawing
 62
7
100
AcDbPolyline
 90
28
 70
1
 10
106.049856
 20
148.372381
 30
0.0
 10
106.049856
 20
148.127435
 30
0.0
 10
106.744904
 20
148.127435
 30
0.0
 10
107.449254
 20
148.127435
 30
0.0
 10
107.449254
 20
148.049920
 30
0.0
 10
107.676631
 20
148.049920
 30
0.0
 10
107.676631
 20
147.452541
 30
0.0
 10
108.573733
 20
147.452541
 30
0.0
 10
108.573733
 20
148.049920
 30
0.0
 10
107.723656
 20
148.049920
 30
0.0
 10
107.723656
 20
148.175494
 30
0.0
 10
111.290879
 20
148.175494
 30
0.0
 10
111.290879
 20
144.283224
 30
0.0
 10
103.931123
 20
144.283224
 30
0.0
 10
103.931123
 20
144.163852
 30
0.0
 10
103.931123
 20
144.024843
 30
0.0
 10
103.075360
 20
144.024843
 30
0.0
 10
103.075360
 20
141.993959
 30
0.0
 10
104.090286
 20
141.993959
 30
0.0
 10
104.090286
 20
144.024843
 30
0.0
 10
104.090286
 20
144.163852
 30
0.0
 10
111.447975
 20
144.163852
 30
0.0
 10
111.447975
 20
144.283224
 30
0.0
 10
111.447975
 20
148.372381
 30
0.0
 10
111.290879
 20
148.372381
 30
0.0
 10
107.723656
 20
148.372381
 30
0.0
 10
107.449254
 20
148.372381
 30
0.0
 10
106.744904
 20
148.372381
 30
0.0
  0
LWPOLYLINE
  5
107
100
AcDbEntity
  8
drawing
 62
7
100
AcDbPolyline
 90
26
 70
1
 10
108.915831
 20
148.049920
 30
0.0
 10
108.915831
 20
147.453057
 30
0.0
 10
108.915831
 20
147.287176
 30
0.0
 10
107.179503
 20
147.287176
 30
0.0
 10
107.179503
 20
147.872670
 30
0.0
 10
107.019306
 20
147.872670
 30
0.0
 10
106.744904
 20
147.872670
 30
0.0
 10
106.049856
 20
147.872670
 30
0.0
 10
105.822479
 20
147.872670
 30
0.0
 10
105.822479
 20
147.627724
 30
0.0
 10
106.049856
 20
147.627724
 30
0.0
 10
106.744904
 20
147.627724
 30
0.0
 10
107.019306
 20
147.627724
 30
0.0
 10
107.019306
 20
147.372444
 30
0.0
 10
106.744904
 20
147.372444
 30
0.0
 10
106.049856
 20
147.372444
 30
0.0
 10
105.822479
 20
147.372444
 30
0.0
 10
105.822479
 20
147.127495
 30
0.0
 10
106.049856
 20
147.127495
 30
0.0
 10
106.744904
 20
147.127495
 30
0.0
 10
107.019306
 20
147.127495
 30
0.0
 10
108.915831
 20
147.127495
 30
0.0
 10
109.069310
 20
147.127495
 30
0.0
 10
109.069310
 20
147.453057
 30
0.0
 10
109.812935
 20
147.453057
 30
0.0
 10
109.812935
 20
148.049920
 30
0.0
  0
LWPOLYLINE
  5
108
100
AcDbEntity
  8
drawing
 62
7
100
AcDbPolyline
 90
21
 70
1
 10
102.815944
 20
156.887106
 30
0.0
 10
102.815944
 20
153.829412
 30
0.0
 10
103.723899
 20
153.829412
 30
0.0
 10
103.723899
 20
152.420196
 30
0.0
 10
103.503758
 20
152.420196
 30
0.0
 10
103.503758
 20
151.523095
 30
0.0
 10
104.101137
 20
151.523095
 30
0.0
 10
104.127489
 20
151.523095
 30
0.0
 10
104.127489
 20
150.744847
 30
0.0
 10
104.127489
 20
150.049799
 30
0.0
 10
104.372438
 20
150.049799
 30
0.0
 10
104.372438
 20
150.744847
 30
0.0
 10
104.372438
 20
151.523095
 30
0.0
 10
104.372438
 20
151.702927
 30
0.0
 10
104.127489
 20
151.702927
 30
0.0
 10
104.101137
 20
151.702927
 30
0.0
 10
104.101137
 20
152.420196
 30
0.0
 10
103.882030
 20
152.420196
 30
0.0
 10
103.882030
 20
153.829412
 30
0.0
 10
104.350218
 20
153.829412
 30
0.0
 10
104.350218
 20
156.887106
 30
0.0
  0
LWPOLYLINE
  5
109
100
AcDbEntity
  8
drawing
 62
7
100
AcDbPolyline
 90
12
 70
1
 10
105.627661
 20
146.950245
 30
0.0
 10
105.627661
 20
146.255198
 30
0.0
 10
105.627661
 20
145.867107
 30
0.0
 10
105.872607
 20
145.867107
 30
0.0
 10
106.945926
 20
145.867107
 30
0.0
 10
107.843546
 20
145.867107
 30
0.0
 10
107.843546
 20
146.464489
 30
0.0
 10
106.945926
 20
146.464489
 30
0.0
 10
106.945926
 20
146.036089
 30
0.0
 10
105.872607
 20
146.036089
 30
0.0
 10
105.872607
 20
146.255198
 30
0.0
 10
105.872607
 20
146.950245
 30
0.0
  0
LWPOLYLINE
  5
10a
100
AcDbEntity
  8
drawing
 62
7
100
AcDbPolyline
 90
29
 70
1
 10
110.161751
 20
148.049920
 30
0.0
 10
110.161751
 20
147.453057
 30
0.0
 10
110.479561
 20
147.453057
 30
0.0
 10
110.479561
 20
147.260305
 30
0.0
 10
109.851691
 20
147.260305
 30
0.0
 10
109.851691
 20
147.124913
 30
0.0
 10
109.851691
 20
145.720864
 30
0.0
 10
105.372378
 20
145.720864
 30
0.0
 10
105.372378
 20
146.255198
 30
0.0
 10
105.372378
 20
146.950245
 30
0.0
 10
105.127432
 20
146.950245
 30
0.0
 10
105.127432
 20
146.255198
 30
0.0
 10
105.127432
 20
145.720864
 30
0.0
 10
105.127432
 20
145.511058
 30
0.0
 10
109.851691
 20
145.511058
 30
0.0
 10
110.050129
 20
145.511058
 30
0.0
 10
110.050129
 20
147.124913
 30
0.0
 10
110.479561
 20
147.124913
 30
0.0
 10
110.479561
 20
146.950245
 30
0.0
 10
110.161751
 20
146.950245
 30
0.0
 10
110.161751
 20
146.352866
 30
0.0
 10
111.058853
 20
146.352866
 30
0.0
 10
111.058853
 20
146.950245
 30
0.0
 10
110.746211
 20
146.950245
 30
0.0
 10
110.612368
 20
146.950245
 30
0.0
 10
110.612368
 20
147.453057
 30
0.0
 10
110.746211
 20
147.453057
 30
0.0
 10
111.058853
 20
147.453057
 30
0.0
 10
111.058853
 20
148.049920
 30
0.0
  0
LWPOLYLINE
  5
10b
100
AcDbEntity
  8
drawing
 62
7
100
AcDbPolyline
 90
13
 70
1
 10
102.006692
 20
152.420196
 30
0.0
 10
102.006692
 20
151.523095
 30
0.0
 10
102.393233
 20
151.523095
 30
0.0
 10
102.393233
 20
149.872547
 30
0.0
 10
102.393233
 20
149.627601
 30
0.0
 10
103.255195
 20
149.627601
 30
0.0
 10
103.950242
 20
149.627601
 30
0.0
 10
103.950242
 20
149.872547
 30
0.0
 10
103.255195
 20
149.872547
 30
0.0
 10
102.604071
 20
149.872547
 30
0.0
 10
102.604071
 20
151.523095
 30
0.0
 10
102.603542
 20
151.523095
 30
0.0
 10
102.603542
 20
152.420196
 30
0.0
  0
LWPOLYLINE
  5
10c
100
AcDbEntity
  8
drawing
 62
7
100
AcDbPolyline
 90
46
 70
1
 10
98.152663
 20
152.942129
 30
0.0
 10
98.152663
 20
150.346421
 30
0.0
 10
98.478741
 20
150.346421
 30
0.0
 10
98.478741
 20
149.719070
 30
0.0
 10
97.823484
 20
149.719070
 30
0.0
 10
97.823484
 20
150.051866
 30
0.0
 10
95.792085
 20
150.051866
 30
0.0
 10
95.792085
 20
149.036940
 30
0.0
 10
97.823484
 20
149.036940
 30
0.0
 10
97.823484
 20
149.546988
 30
0.0
 10
98.174885
 20
149.546988
 30
0.0
 10
98.174885
 20
148.950125
 30
0.0
 10
99.071987
 20
148.950125
 30
0.0
 10
99.071987
 20
149.546988
 30
0.0
 10
99.501419
 20
149.546988
 30
0.0
 10
99.501419
 20
148.950125
 30
0.0
 10
100.398521
 20
148.950125
 30
0.0
 10
100.398521
 20
149.127375
 30
0.0
 10
100.873429
 20
149.127375
 30
0.0
 10
100.873429
 20
148.872610
 30
0.0
 10
100.873429
 20
148.627664
 30
0.0
 10
100.873429
 20
148.127435
 30
0.0
 10
101.067215
 20
148.127435
 30
0.0
 10
103.255195
 20
148.127435
 30
0.0
 10
103.950242
 20
148.127435
 30
0.0
 10
103.950242
 20
148.372381
 30
0.0
 10
103.255195
 20
148.372381
 30
0.0
 10
101.067215
 20
148.372381
 30
0.0
 10
101.067215
 20
148.627664
 30
0.0
 10
103.255195
 20
148.627664
 30
0.0
 10
103.950242
 20
148.627664
 30
0.0
 10
103.950242
 20
148.872610
 30
0.0
 10
103.255195
 20
148.872610
 30
0.0
 10
101.067215
 20
148.872610
 30
0.0
 10
101.067215
 20
149.127375
 30
0.0
 10
103.255195
 20
149.127375
 30
0.0
 10
103.950242
 20
149.127375
 30
0.0
 10
103.950242
 20
149.372321
 30
0.0
 10
103.255195
 20
149.372321
 30
0.0
 10
100.398521
 20
149.372321
 30
0.0
 10
100.398521
 20
149.546988
 30
0.0
 10
100.398521
 20
149.719070
 30
0.0
 10
98.768132
 20
149.719070
 30
0.0
 10
98.768132
 20
150.346421
 30
0.0
 10
99.147952
 20
150.346421
 30
0.0
 10
99.147952
 20
152.942129
 30
0.0
  0
LWPOLYLINE
  5
10d
100
AcDbEntity
  8
drawing
 62
7
100
AcDbPolyline
 90
18
 70
1
 10
100.873429
 20
148.047338
 30
0.0
 10
100.873429
 20
147.449956
 30
0.0
 10
101.770531
 20
147.449956
 30
0.0
 10
101.770531
 20
147.627724
 30
0.0
 10
101.934345
 20
147.627724
 30
0.0
 10
101.934345
 20
147.449956
 30
0.0
 10
102.831965
 20
147.449956
 30
0.0
 10
102.831965
 20
147.627724
 30
0.0
 10
103.255195
 20
147.627724
 30
0.0
 10
103.950242
 20
147.627724
 30
0.0
 10
103.950242
 20
147.872670
 30
0.0
 10
103.255195
 20
147.872670
 30
0.0
 10
102.831965
 20
147.872670
 30
0.0
 10
102.831965
 20
148.047338
 30
0.0
 10
101.934345
 20
148.047338
 30
0.0
 10
101.934345
 20
147.872670
 30
0.0
 10
101.770531
 20
147.872670
 30
0.0
 10
101.770531
 20
148.047338
 30
0.0
  0
SPLINE
  5
10e
100
AcDbEntity
  8
drawing
 62
7
100
AcDbSpline
 70
8
 71
3
 72
8
 73
4
 74
0
 40
0
 40
0
 40
0
 40
0
 40
1
 40
1
 40
1
 40
1
 10
103.871090
 20
150.220246
 30
0.0
 10
103.836664
 20
150.220246
 30
0.0
 10
103.805628
 20
150.199508
 30
0.0
 10
103.792453
 20
150.167702
 30
0.0
  0
SPLINE
  5
10f
100
AcDbEntity
  8
drawing
 62
7
100
AcDbSpline
 70
8
 71
3
 72
8
 73
4
 74
0
 40
0
 40
0
 40
0
 40
0
 40
1
 40
1
 40
1
 40
1
 10
103.792453
 20
150.167702
 30
0.0
 10
103.779279
 20
150.135897
 30
0.0
 10
103.786561
 20
150.099287
 30
0.0
 10
103.810904
 20
150.074944
 30
0.0
  0
SPLINE
  5
110
100
AcDbEntity
  8
drawing
 62
7
100
AcDbSpline
 70
8
 71
3
 72
8
 73
4
 74
0
 40
0
 40
0
 40
0
 40
0
 40
1
 40
1
 40
1
 40
1
 10
103.810904
 20
150.074944
 30
0.0
 10
103.835247
 20
150.050601
 30
0.0
 10
103.871857
 20
150.043319
 30
0.0
 10
103.903662
 20
150.056493
 30
0.0
  0
SPLINE
  5
111
100
AcDbEntity
  8
drawing
 62
7
100
AcDbSpline
 70
8
 71
3
 72
8
 73
4
 74
0
 40
0
 40
0
 40
0
 40
0
 40
1
 40
1
 40
1
 40
1
 10
103.903662
 20
150.056493
 30
0.0
 10
103.935468
 20
150.069668
 30
0.0
 10
103.956206
 20
150.100704
 30
0.0
 10
103.956206
 20
150.135130
 30
0.0
  0
SPLINE
  5
112
100
AcDbEntity
  8
drawing
 62
7
100
AcDbSpline
 70
8
 71
3
 72
8
 73
4
 74
0
 40
0
 40
0
 40
0
 40
0
 40
1
 40
1
 40
1
 40
1
 10
103.956206
 20
150.135130
 30
0.0
 10
103.956206
 20
150.157704
 30
0.0
 10
103.947238
 20
150.179354
 30
0.0
 10
103.931276
 20
150.195316
 30
0.0
  0
SPLINE
  5
113
100
AcDbEntity
  8
drawing
 62
7
100
AcDbSpline
 70
8
 71
3
 72
8
 73
4
 74
0
 40
0
 40
0
 40
0
 40
0
 40
1
 40
1
 40
1
 40
1
 10
103.931276
 20
150.195316
 30
0.0
 10
103.915314
 20
150.211278
 30
0.0
 10
103.893664
 20
150.220246
 30
0.0
 10
103.871090
 20
150.220246
 30
0.0
  0
LWPOLYLINE
  5
114
100
AcDbEntity
  8
drawing
 62
7
100
AcDbPolyline
 90
18
 70
1
 10
99.501419
 20
148.049920
 30
0.0
 10
99.501419
 20
147.452541
 30
0.0
 10
99.872973
 20
147.452541
 30
0.0
 10
99.872973
 20
146.952830
 30
0.0
 10
99.494185
 20
146.952830
 30
0.0
 10
99.494185
 20
146.355451
 30
0.0
 10
100.391287
 20
146.355451
 30
0.0
 10
100.391287
 20
146.952830
 30
0.0
 10
100.099832
 20
146.952830
 30
0.0
 10
100.099832
 20
147.127495
 30
0.0
 10
103.255195
 20
147.127495
 30
0.0
 10
103.950242
 20
147.127495
 30
0.0
 10
103.950242
 20
147.372444
 30
0.0
 10
103.255195
 20
147.372444
 30
0.0
 10
100.099832
 20
147.372444
 30
0.0
 10
100.099832
 20
147.452541
 30
0.0
 10
100.398521
 20
147.452541
 30
0.0
 10
100.398521
 20
148.049920
 30
0.0
  0
LWPOLYLINE
  5
115
100
AcDbEntity
  8
drawing
 62
7
100
AcDbPolyline
 90
1
 70
1
 10
103.871090
 20
150.220246
 30
0.0
  0
LWPOLYLINE
  5
116
100
AcDbEntity
  8
drawing
 62
7
100
AcDbPolyline
 90
10
 70
1
 10
98.174885
 20
148.049920
 30
0.0
 10
98.174885
 20
147.965171
 30
0.0
 10
97.823484
 20
147.965171
 30
0.0
 10
95.792085
 20
147.965171
 30
0.0
 10
95.792085
 20
146.950245
 30
0.0
 10
97.823484
 20
146.950245
 30
0.0
 10
97.823484
 20
147.453057
 30
0.0
 10
98.174885
 20
147.453057
 30
0.0
 10
99.071987
 20
147.453057
 30
0.0
 10
99.071987
 20
148.049920
 30
0.0
  0
LWPOLYLINE
  5
117
100
AcDbEntity
  8
drawing
 62
7
100
AcDbPolyline
 90
4
 70
1
 10
100.391460
 20
145.455380
 30
0.0
 10
100.391460
 20
144.858177
 30
0.0
 10
99.494257
 20
144.858177
 30
0.0
 10
99.494257
 20
145.455380
 30
0.0
  0
LWPOLYLINE
  5
118
100
AcDbEntity
  8
drawing
 62
7
100
AcDbPolyline
 90
4
 70
1
 10
98.152466
 20
157.537990
 30
0.0
 10
99.148144
 20
157.537990
 30
0.0
 10
99.148144
 20
154.942312
 30
0.0
 10
98.152466
 20
154.942312
 30
0.0
  0
LWPOLYLINE
  5
119
100
AcDbEntity
  8
drawing
 62
7
100
AcDbPolyline
 90
4
 70
1
 10
111.460720
 20
157.537990
 30
0.0
 10
112.456398
 20
157.537990
 30
0.0
 10
112.456398
 20
154.942312
 30
0.0
 10
111.460720
 20
154.942312
 30
0.0
  0
LWPOLYLINE
  5
11a
100
AcDbEntity
  8
drawing
 62
7
100
AcDbPolyline
 90
4
 70
1
 10
102.831730
 20
146.549990
 30
0.0
 10
102.831730
 20
145.952787
 30
0.0
 10
101.934527
 20
145.952787
 30
0.0
 10
101.934527
 20
146.549990
 30
0.0
  0
LWPOLYLINE
  5
11b
100
AcDbEntity
  8
drawing
 62
7
100
AcDbPolyline
 90
13
 70
1
 10
100.873429
 20
146.549754
 30
0.0
 10
100.873429
 20
145.952891
 30
0.0
 10
101.528686
 20
145.952891
 30
0.0
 10
101.528686
 20
144.967421
 30
0.0
 10
101.528686
 20
144.745729
 30
0.0
 10
106.945926
 20
144.745729
 30
0.0
 10
106.945926
 20
144.370042
 30
0.0
 10
107.843546
 20
144.370042
 30
0.0
 10
107.843546
 20
144.967421
 30
0.0
 10
106.945926
 20
144.967421
 30
0.0
 10
101.770531
 20
144.967421
 30
0.0
 10
101.770531
 20
145.952891
 30
0.0
 10
101.770531
 20
146.549754
 30
0.0
  0
LWPOLYLINE
  5
11c
100
AcDbEntity
  8
drawing
 62
7
100
AcDbPolyline
 90
4
 70
1
 10
111.059070
 20
145.452800
 30
0.0
 10
111.059070
 20
144.855597
 30
0.0
 10
110.161867
 20
144.855597
 30
0.0
 10
110.161867
 20
145.452800
 30
0.0
  0
LWPOLYLINE
  5
11d
100
AcDbEntity
  8
drawing
 62
7
100
AcDbPolyline
 90
12
 70
1
 10
124.168131
 20
156.159502
 30
0.0
 10
124.168131
 20
155.262401
 30
0.0
 10
124.765510
 20
155.262401
 30
0.0
 10
125.315865
 20
155.262401
 30
0.0
 10
125.315865
 20
150.049799
 30
0.0
 10
124.555704
 20
150.049799
 30
0.0
 10
124.555704
 20
149.034874
 30
0.0
 10
126.586587
 20
149.034874
 30
0.0
 10
126.586587
 20
150.049799
 30
0.0
 10
125.742193
 20
150.049799
 30
0.0
 10
125.742193
 20
156.159502
 30
0.0
 10
124.765510
 20
156.159502
 30
0.0
  0
LWPOLYLINE
  5
11e
100
AcDbEntity
  8
drawing
 62
7
100
AcDbPolyline
 90
4
 70
1
 10
126.586620
 20
147.962970
 30
0.0
 10
126.586620
 20
146.947942
 30
0.0
 10
124.555592
 20
146.947942
 30
0.0
 10
124.555592
 20
147.962970
 30
0.0
  0
LWPOLYLINE
  5
11f
100
AcDbEntity
  8
drawing
 62
7
100
AcDbPolyline
 90
6
 70
1
 10
103.255060
 20
150.744940
 30
0.0
 10
103.541780
 20
150.744940
 30
0.0
 10
103.541780
 20
150.649740
 30
0.0
 10
103.359990
 20
150.649740
 30
0.0
 10
103.359990
 20
150.511800
 30
0.0
 10
103.255060
 20
150.511800
 30
0.0
  0
LWPOLYLINE
  5
120
100
AcDbEntity
  8
drawing
 62
7
100
AcDbPolyline
 90
6
 70
1
 10
103.255060
 20
146.255070
 30
0.0
 10
103.255060
 20
146.541790
 30
0.0
 10
103.350260
 20
146.541790
 30
0.0
 10
103.350260
 20
146.360000
 30
0.0
 10
103.488200
 20
146.360000
 30
0.0
 10
103.488200
 20
146.255070
 30
0.0
  0
LWPOLYLINE
  5
121
100
AcDbEntity
  8
drawing
 62
7
100
AcDbPolyline
 90
6
 70
1
 10
106.744920
 20
146.255070
 30
0.0
 10
106.458200
 20
146.255070
 30
0.0
 10
106.458200
 20
146.350270
 30
0.0
 10
106.639990
 20
146.350270
 30
0.0
 10
106.639990
 20
146.488210
 30
0.0
 10
106.744920
 20
146.488210
 30
0.0
  0
LWPOLYLINE
  5
122
100
AcDbEntity
  8
drawing
 62
7
100
AcDbPolyline
 90
6
 70
1
 10
106.744920
 20
150.744940
 30
0.0
 10
106.744920
 20
150.458220
 30
0.0
 10
106.649720
 20
150.458220
 30
0.0
 10
106.649720
 20
150.640010
 30
0.0
 10
106.511780
 20
150.640010
 30
0.0
 10
106.511780
 20
150.744940
 30
0.0
  0
LWPOLYLINE
  5
123
100
AcDbEntity
  8
drawing
 62
7
100
AcDbPolyline
 90
20
 70
1
 10
110.050129
 20
160.701861
 30
0.0
 10
110.050129
 20
159.804759
 30
0.0
 10
110.646992
 20
159.804759
 30
0.0
 10
119.792169
 20
159.804759
 30
0.0
 10
119.792169
 20
156.159502
 30
0.0
 10
119.792169
 20
155.262401
 30
0.0
 10
119.792169
 20
154.700677
 30
0.0
 10
116.601151
 20
154.700677
 30
0.0
 10
116.601151
 20
148.486586
 30
0.0
 10
123.325288
 20
148.486586
 30
0.0
 10
123.325288
 20
154.700677
 30
0.0
 10
120.519773
 20
154.700677
 30
0.0
 10
120.519773
 20
155.262401
 30
0.0
 10
122.671063
 20
155.262401
 30
0.0
 10
123.267926
 20
155.262401
 30
0.0
 10
123.267926
 20
156.159502
 30
0.0
 10
122.671063
 20
156.159502
 30
0.0
 10
120.519773
 20
156.159502
 30
0.0
 10
120.519773
 20
160.701861
 30
0.0
 10
110.646992
 20
160.701861
 30
0.0
  0
LWPOLYLINE
  5
124
100
AcDbEntity
  8
drawing
 62
7
100
AcDbPolyline
 90
26
 70
1
 10
102.090409
 20
159.594953
 30
0.0
 10
102.090409
 20
159.154670
 30
0.0
 10
103.530632
 20
159.154670
 30
0.0
 10
104.824608
 20
159.154670
 30
0.0
 10
104.824608
 20
158.514915
 30
0.0
 10
105.196678
 20
158.514915
 30
0.0
 10
106.500474
 20
158.514915
 30
0.0
 10
107.940696
 20
158.514915
 30
0.0
 10
115.791897
 20
158.514915
 30
0.0
 10
115.791897
 20
146.567324
 30
0.0
 10
115.791897
 20
146.373020
 30
0.0
 10
117.034716
 20
146.373020
 30
0.0
 10
117.034716
 20
142.300918
 30
0.0
 10
118.545217
 20
142.300918
 30
0.0
 10
118.545217
 20
146.567324
 30
0.0
 10
117.034716
 20
146.567324
 30
0.0
 10
116.188772
 20
146.567324
 30
0.0
 10
116.188772
 20
158.514915
 30
0.0
 10
116.188772
 20
158.954682
 30
0.0
 10
115.791897
 20
158.954682
 30
0.0
 10
107.940696
 20
158.954682
 30
0.0
 10
106.500474
 20
158.954682
 30
0.0
 10
105.196678
 20
158.954682
 30
0.0
 10
105.196678
 20
159.594953
 30
0.0
 10
104.999791
 20
159.594953
 30
0.0
 10
103.530632
 20
159.594953
 30
0.0
  0
LWPOLYLINE
  5
125
100
AcDbEntity
  8
drawing
 62
7
100
AcDbPolyline
 90
13
 70
1
 10
105.449893
 20
162.195828
 30
0.0
 10
105.449893
 20
161.298724
 30
0.0
 10
106.047271
 20
161.298724
 30
0.0
 10
109.525095
 20
161.298724
 30
0.0
 10
109.525095
 20
159.594953
 30
0.0
 10
107.940696
 20
159.594953
 30
0.0
 10
106.500474
 20
159.594953
 30
0.0
 10
106.500474
 20
159.154670
 30
0.0
 10
107.940696
 20
159.154670
 30
0.0
 10
109.783479
 20
159.154670
 30
0.0
 10
109.783479
 20
159.594953
 30
0.0
 10
109.783479
 20
162.195828
 30
0.0
 10
106.047271
 20
162.195828
 30
0.0
  0
LWPOLYLINE
  5
126
100
AcDbEntity
  8
drawing
 62
7
100
AcDbPolyline
 90
9
 70
1
 10
108.552545
 20
160.701861
 30
0.0
 10
108.552545
 20
160.245042
 30
0.0
 10
107.940696
 20
160.245042
 30
0.0
 10
106.500474
 20
160.245042
 30
0.0
 10
106.500474
 20
159.804759
 30
0.0
 10
107.940696
 20
159.804759
 30
0.0
 10
108.552545
 20
159.804759
 30
0.0
 10
109.149926
 20
159.804759
 30
0.0
 10
109.149926
 20
160.701861
 30
0.0
  0
LWPOLYLINE
  5
127
100
AcDbEntity
  8
drawing
 62
7
100
AcDbPolyline
 90
4
 70
1
 10
107.940440
 20
158.304900
 30
0.0
 10
107.940440
 20
157.864764
 30
0.0
 10
106.500303
 20
157.864764
 30
0.0
 10
106.500303
 20
158.304900
 30
0.0
  0
LWPOLYLINE
  5
128
100
AcDbEntity
  8
drawing
 62
7
100
AcDbPolyline
 90
4
 70
1
 10
103.530580
 20
158.954900
 30
0.0
 10
103.530580
 20
158.514764
 30
0.0
 10
102.090443
 20
158.514764
 30
0.0
 10
102.090443
 20
158.954900
 30
0.0
  0
SPLINE
  5
129
100
AcDbEntity
  8
drawing
 62
7
100
AcDbSpline
 70
8
 71
3
 72
8
 73
4
 74
0
 40
0
 40
0
 40
0
 40
0
 40
1
 40
1
 40
1
 40
1
 10
103.540443
 20
160.672160
 30
0.0
 10
103.540443
 20
160.736410
 30
0.0
 10
103.501740
 20
160.794334
 30
0.0
 10
103.442380
 20
160.818921
 30
0.0
  0
SPLINE
  5
12a
100
AcDbEntity
  8
drawing
 62
7
100
AcDbSpline
 70
8
 71
3
 72
8
 73
4
 74
0
 40
0
 40
0
 40
0
 40
0
 40
1
 40
1
 40
1
 40
1
 10
103.442380
 20
160.818921
 30
0.0
 10
103.383021
 20
160.843509
 30
0.0
 10
103.314696
 20
160.829918
 30
0.0
 10
103.269264
 20
160.784486
 30
0.0
  0
SPLINE
  5
12b
100
AcDbEntity
  8
drawing
 62
7
100
AcDbSpline
 70
8
 71
3
 72
8
 73
4
 74
0
 40
0
 40
0
 40
0
 40
0
 40
1
 40
1
 40
1
 40
1
 10
103.269264
 20
160.784486
 30
0.0
 10
103.223832
 20
160.739054
 30
0.0
 10
103.210241
 20
160.670729
 30
0.0
 10
103.234829
 20
160.611370
 30
0.0
  0
SPLINE
  5
12c
100
AcDbEntity
  8
drawing
 62
7
100
AcDbSpline
 70
8
 71
3
 72
8
 73
4
 74
0
 40
0
 40
0
 40
0
 40
0
 40
1
 40
1
 40
1
 40
1
 10
103.234829
 20
160.611370
 30
0.0
 10
103.259416
 20
160.552010
 30
0.0
 10
103.317340
 20
160.513307
 30
0.0
 10
103.381590
 20
160.513307
 30
0.0
  0
SPLINE
  5
12d
100
AcDbEntity
  8
drawing
 62
7
100
AcDbSpline
 70
8
 71
3
 72
8
 73
4
 74
0
 40
0
 40
0
 40
0
 40
0
 40
1
 40
1
 40
1
 40
1
 10
103.381590
 20
160.513307
 30
0.0
 10
103.423720
 20
160.513307
 30
0.0
 10
103.464125
 20
160.530043
 30
0.0
 10
103.493916
 20
160.559834
 30
0.0
  0
SPLINE
  5
12e
100
AcDbEntity
  8
drawing
 62
7
100
AcDbSpline
 70
8
 71
3
 72
8
 73
4
 74
0
 40
0
 40
0
 40
0
 40
0
 40
1
 40
1
 40
1
 40
1
 10
103.493916
 20
160.559834
 30
0.0
 10
103.523707
 20
160.589625
 30
0.0
 10
103.540443
 20
160.630030
 30
0.0
 10
103.540443
 20
160.672160
 30
0.0
  0
LWPOLYLINE
  5
12f
100
AcDbEntity
  8
drawing
 62
7
100
AcDbPolyline
 90
15
 70
1
 10
101.629455
 20
162.195828
 30
0.0
 10
101.629455
 20
161.298724
 30
0.0
 10
101.629455
 20
160.245042
 30
0.0
 10
101.629455
 20
159.804759
 30
0.0
 10
102.090409
 20
159.804759
 30
0.0
 10
103.530632
 20
159.804759
 30
0.0
 10
103.530632
 20
160.245042
 30
0.0
 10
102.090409
 20
160.245042
 30
0.0
 10
101.966902
 20
160.245042
 30
0.0
 10
101.966902
 20
161.298724
 30
0.0
 10
103.952827
 20
161.298724
 30
0.0
 10
104.550206
 20
161.298724
 30
0.0
 10
104.550206
 20
162.195828
 30
0.0
 10
103.952827
 20
162.195828
 30
0.0
 10
101.966902
 20
162.195828
 30
0.0
  0
LWPOLYLINE
  5
130
100
AcDbEntity
  8
drawing
 62
7
100
AcDbPolyline
 90
1
 70
1
 10
103.540443
 20
160.672160
 30
0.0
  0
LWPOLYLINE
  5
131
100
AcDbEntity
  8
bounding-box
 62
7
100
AcDbPolyline
 90
4
 70
1
 10
95.792290
 20
163.080250
 30
0.0
 10
126.586613
 20
163.080250
 30
0.0
 10
126.586613
 20
141.994059
 30
0.0
 10
95.792290
 20
141.994059
 30
0.0
  0
ENDSEC
  0
SECTION
  2
OBJECTS
  0
DICTIONARY
  5
C
330
0
100
AcDbDictionary
  3
ACAD_GROUP
350
D
  3
ACAD_MLINESTYLE
350
17
  0
DICTIONARY
  5
D
330
C
100
AcDbDictionary
  0
DICTIONARY
  5
1A
330
C
100
AcDbDictionary
  0
DICTIONARY
  5
17
330
C
100
AcDbDictionary
  3
STANDARD
350
18
  0
DICTIONARY
  5
19
330
C
100
AcDbDictionary
  0
ENDSEC
  0
EOF
